<svg width="60" height="60" viewBox="0 0 60 60" fill="none" xmlns="http://www.w3.org/2000/svg">
<circle cx="30" cy="30" r="30" fill="#ECF2F9"/>
<path fill-rule="evenodd" clip-rule="evenodd" d="M30.2199 31.9341L33.1586 28.9954C33.9702 28.1838 34.1714 26.9438 33.6581 25.9172L33.4916 25.5842C32.9783 24.5575 33.1795 23.3176 33.9911 22.506L37.6348 18.8623C37.8952 18.6019 38.3173 18.6019 38.5776 18.8623C38.6283 18.9129 38.6705 18.9714 38.7025 19.0355L40.1745 21.9795C41.3006 24.2316 40.8592 26.9516 39.0787 28.7321L31.0803 36.7305C29.1422 38.6686 26.2755 39.3453 23.6753 38.4786L20.456 37.4055C20.1067 37.2891 19.918 36.9115 20.0344 36.5622C20.0671 36.464 20.1223 36.3748 20.1954 36.3016L23.7305 32.7666C24.5421 31.955 25.782 31.7538 26.8087 32.2671L27.1417 32.4336C28.1683 32.9469 29.4082 32.7457 30.2199 31.9341Z" fill="#3179C2"/>
</svg>
