<svg width="24" height="24" viewBox="0 0 24 24" fill="none" xmlns="http://www.w3.org/2000/svg">
<path fill-rule="evenodd" clip-rule="evenodd" d="M2.80403 8.3533C2.52389 10.9562 2.53638 13.9582 2.9262 16.5505C3.1419 17.9849 4.31257 19.0845 5.75764 19.2102L7.26787 19.3414C10.4169 19.6152 13.5837 19.6152 16.7328 19.3414L18.243 19.2102C19.6881 19.0845 20.8588 17.9849 21.0745 16.5505C21.4643 13.9582 21.4768 10.9564 21.1966 8.35345C21.1604 8.05169 21.1197 7.75034 21.0745 7.44949C20.8588 6.0151 19.6881 4.91545 18.243 4.78983L16.7328 4.65855C13.5837 4.38481 10.4169 4.38481 7.26787 4.65855L5.75764 4.78983C4.31257 4.91545 3.1419 6.0151 2.9262 7.44949C2.88097 7.75028 2.84025 8.05159 2.80403 8.3533ZM7.39777 6.15292C10.4603 5.88669 13.5403 5.88669 16.6029 6.15292L18.1131 6.2842C18.8674 6.34977 19.4785 6.92379 19.5911 7.67254C19.6028 7.7503 19.6142 7.82809 19.6253 7.90592L14.0643 10.9954C12.7807 11.7085 11.2199 11.7085 9.93633 10.9954L4.37539 7.90596C4.38645 7.82812 4.39783 7.75031 4.40952 7.67254C4.52212 6.92379 5.13321 6.34977 5.88754 6.2842L7.39777 6.15292ZM19.8088 9.51989C20.0028 11.7876 19.9302 14.0725 19.5911 16.3274C19.4785 17.0762 18.8674 17.6502 18.1131 17.7158L16.6029 17.8471C13.5403 18.1133 10.4603 18.1133 7.39777 17.8471L5.88754 17.7158C5.13321 17.6502 4.52212 17.0762 4.40952 16.3274C4.07043 14.0725 3.99787 11.7877 4.19184 9.51992L9.20786 12.3066C10.9445 13.2714 13.0561 13.2714 14.7927 12.3066L19.8088 9.51989Z" fill="#9FA8B3"/>
</svg>
