<svg width="60" height="60" viewBox="0 0 60 60" fill="none" xmlns="http://www.w3.org/2000/svg">
<circle cx="30" cy="30" r="30" fill="#ECF2F9"/>
<path d="M23.7217 20.5435C27.9012 20.1802 32.1044 20.1802 36.2839 20.5435L38.2976 20.7185C39.638 20.8351 40.7862 21.6346 41.3811 22.7783C41.4571 22.9246 41.4 23.1018 41.2599 23.1886L32.9052 28.3605C31.1135 29.4697 28.854 29.4929 27.0398 28.4209L18.6293 23.4511C18.4935 23.3708 18.4311 23.2055 18.4923 23.0601C19.0365 21.7673 20.2601 20.8444 21.7081 20.7185L23.7217 20.5435Z" fill="#3179C2"/>
<path d="M18.4831 25.689C18.2751 25.5661 18.0098 25.6983 17.9855 25.9386C17.6472 29.2929 17.7291 32.6787 18.2312 36.0175C18.4959 37.7777 19.9324 39.1271 21.7057 39.2813L23.7193 39.4563C27.8988 39.8197 32.102 39.8197 36.2815 39.4563L38.2952 39.2813C40.0684 39.1271 41.5049 37.7777 41.7696 36.0175C42.2864 32.5815 42.358 29.0954 41.9847 25.6455C41.9584 25.4035 41.6887 25.2737 41.4816 25.4018L33.9556 30.0609C31.5313 31.5615 28.4745 31.593 26.0199 30.1426L18.4831 25.689Z" fill="#3179C2"/>
</svg>
